<svg width="102" height="102" viewBox="0 0 102 102" fill="none" xmlns="http://www.w3.org/2000/svg">
<path d="M51 0C22.899 0 0 22.899 0 51C0 79.101 22.899 102 51 102C79.101 102 102 79.101 102 51C102 22.899 79.101 0 51 0ZM75.378 39.27L46.461 68.187C45.747 68.901 44.778 69.309 43.758 69.309C42.738 69.309 41.769 68.901 41.055 68.187L26.622 53.754C25.143 52.275 25.143 49.827 26.622 48.348C28.101 46.869 30.549 46.869 32.028 48.348L43.758 60.078L69.972 33.864C71.451 32.385 73.899 32.385 75.378 33.864C76.857 35.343 76.857 37.74 75.378 39.27Z" fill="#FF2E39"/>
<circle cx="51" cy="51" r="30" fill="white"/>
</svg>
