<svg width="1288" height="8290" viewBox="0 0 1288 8290" fill="none" xmlns="http://www.w3.org/2000/svg">
<g clip-path="url(#clip0_1_2)" filter="url(#filter0_d_1_2)">
<rect width="1280" height="8282" transform="translate(4)" fill="#261A25"/>
<g opacity="0.2">
<g filter="url(#filter1_f_1_2)">
<path d="M-152.183 7886.54C-48.0979 7988.26 71.7567 8012.07 115.519 7939.73C159.282 7867.38 110.381 7726.27 6.29542 7624.56C-97.7901 7522.84 -217.645 7499.03 -261.407 7571.37C-305.17 7643.72 -256.269 7784.83 -152.183 7886.54Z" fill="#FF00D6"/>
</g>
<g filter="url(#filter2_f_1_2)">
<path d="M-25.7315 7737.43C57.1418 7818.42 164.202 7818.15 213.394 7736.83C262.586 7655.51 235.281 7523.93 152.408 7442.94C69.5349 7361.95 -37.525 7362.22 -86.7169 7443.55C-135.909 7524.87 -108.605 7656.44 -25.7315 7737.43Z" fill="#00E0FF"/>
</g>
</g>
<g opacity="0.15">
<g filter="url(#filter3_f_1_2)">
<path d="M862.013 7841.39C993.116 7996.39 1164.45 8022.83 1244.7 7900.44C1324.95 7778.05 1283.73 7553.19 1152.62 7398.19C1021.52 7243.19 850.186 7216.75 769.936 7339.14C689.686 7461.53 730.91 7686.39 862.013 7841.39Z" fill="#FF00D6"/>
</g>
<g filter="url(#filter4_f_1_2)">
<path d="M1080.81 7585.41C1185.19 7708.82 1342.94 7697.34 1433.15 7559.77C1523.35 7422.2 1511.86 7210.63 1407.47 7087.22C1303.09 6963.81 1145.34 6975.29 1055.14 7112.86C964.933 7250.43 976.426 7462 1080.81 7585.41Z" fill="#00E0FF"/>
</g>
</g>
<g opacity="0.2">
<g filter="url(#filter5_f_1_2)">
<path d="M40.9291 5771.84C145.015 5873.56 264.869 5897.37 308.632 5825.03C352.395 5752.68 303.493 5611.57 199.408 5509.86C95.3224 5408.14 -24.5322 5384.33 -68.295 5456.67C-112.058 5529.02 -63.1564 5670.13 40.9291 5771.84Z" fill="#FF00D6"/>
</g>
<g filter="url(#filter6_f_1_2)">
<path d="M167.381 5622.73C250.254 5703.72 357.314 5703.45 406.506 5622.13C455.698 5540.81 428.394 5409.23 345.52 5328.24C262.647 5247.25 155.587 5247.52 106.395 5328.85C57.2033 5410.17 84.5074 5541.74 167.381 5622.73Z" fill="#00E0FF"/>
</g>
</g>
<g opacity="0.2">
<g filter="url(#filter7_f_1_2)">
<path d="M937.977 6910.82C1042.06 7012.54 1161.92 7036.35 1205.68 6964.01C1249.44 6891.66 1200.54 6750.55 1096.46 6648.84C992.37 6547.12 872.515 6523.31 828.753 6595.65C784.99 6668 833.891 6809.11 937.977 6910.82Z" fill="#FF00D6"/>
</g>
<g filter="url(#filter8_f_1_2)">
<path d="M1064.43 6761.71C1147.3 6842.7 1254.36 6842.43 1303.55 6761.11C1352.74 6679.79 1325.44 6548.21 1242.57 6467.22C1159.69 6386.23 1052.63 6386.5 1003.44 6467.83C954.248 6549.15 981.552 6680.72 1064.43 6761.71Z" fill="#00E0FF"/>
</g>
</g>
<g opacity="0.2">
<g filter="url(#filter9_f_1_2)">
<path d="M953.362 2170.55C1057.45 2268.53 1177.3 2291.47 1221.07 2221.78C1264.83 2152.09 1215.93 2016.16 1111.84 1918.18C1007.76 1820.2 887.901 1797.26 844.138 1866.95C800.376 1936.64 849.277 2072.57 953.362 2170.55Z" fill="#FF00D6"/>
</g>
<g filter="url(#filter10_f_1_2)">
<path d="M1079.82 2026.91C1162.69 2104.93 1269.75 2104.66 1318.94 2026.33C1368.13 1947.99 1340.83 1821.25 1257.96 1743.24C1175.08 1665.22 1068.02 1665.48 1018.83 1743.82C969.638 1822.15 996.942 1948.9 1079.82 2026.91Z" fill="#00E0FF"/>
</g>
</g>
<g opacity="0.2">
<g filter="url(#filter11_f_1_2)">
<path d="M951.362 4726.82C1055.45 4824.8 1175.3 4847.74 1219.07 4778.05C1262.83 4708.36 1213.93 4572.43 1109.84 4474.45C1005.76 4376.47 885.901 4353.53 842.138 4423.22C798.376 4492.91 847.277 4628.84 951.362 4726.82Z" fill="#FF00D6"/>
</g>
<g filter="url(#filter12_f_1_2)">
<path d="M1077.82 4583.18C1160.69 4661.2 1267.75 4660.93 1316.94 4582.6C1366.13 4504.26 1338.83 4377.52 1255.96 4299.51C1173.08 4221.49 1066.02 4221.75 1016.83 4300.09C967.638 4378.42 994.942 4505.17 1077.82 4583.18Z" fill="#00E0FF"/>
</g>
</g>
<g opacity="0.2">
<g filter="url(#filter13_f_1_2)">
<path d="M-42.7849 3297.72C-48.8232 3458.3 4.42428 3591.75 76.1466 3595.79C147.869 3599.84 210.906 3472.94 216.945 3312.36C222.983 3151.78 169.736 3018.32 98.0132 3014.28C26.2908 3010.24 -36.7467 3137.14 -42.7849 3297.72Z" fill="#FF00D6"/>
</g>
<g filter="url(#filter14_f_1_2)">
<path d="M125.792 3342.44C120.985 3470.3 182.443 3577.63 263.063 3582.17C343.682 3586.72 412.935 3486.76 417.743 3358.9C422.551 3231.05 361.093 3123.72 280.473 3119.17C199.853 3114.63 130.6 3214.59 125.792 3342.44Z" fill="#00E0FF"/>
</g>
</g>
<g opacity="0.2">
<g filter="url(#filter15_f_1_2)">
<path d="M951.362 4562.25C1055.45 4660.23 1175.3 4683.17 1219.07 4613.48C1262.83 4543.79 1213.93 4407.86 1109.84 4309.88C1005.76 4211.9 885.901 4188.96 842.138 4258.65C798.376 4328.34 847.277 4464.27 951.362 4562.25Z" fill="#FF00D6"/>
</g>
<g filter="url(#filter16_f_1_2)">
<path d="M1077.82 4418.61C1160.69 4496.63 1267.75 4496.36 1316.94 4418.03C1366.13 4339.69 1338.83 4212.95 1255.96 4134.94C1173.08 4056.92 1066.02 4057.18 1016.83 4135.52C967.638 4213.85 994.942 4340.6 1077.82 4418.61Z" fill="#00E0FF"/>
</g>
</g>
<g opacity="0.2">
<g filter="url(#filter17_f_1_2)">
<path d="M-42.7849 3379.6C-48.8232 3540.18 4.42428 3673.63 76.1466 3677.67C147.869 3681.72 210.906 3554.82 216.945 3394.24C222.983 3233.66 169.736 3100.2 98.0132 3096.16C26.2908 3092.12 -36.7467 3219.02 -42.7849 3379.6Z" fill="#FF00D6"/>
</g>
<g filter="url(#filter18_f_1_2)">
<path d="M125.792 3424.32C120.985 3552.18 182.443 3659.51 263.063 3664.05C343.682 3668.6 412.935 3568.64 417.743 3440.78C422.551 3312.93 361.093 3205.6 280.473 3201.05C199.853 3196.51 130.6 3296.47 125.792 3424.32Z" fill="#00E0FF"/>
</g>
</g>
<g opacity="0.2">
<g filter="url(#filter19_f_1_2)">
<path d="M795.201 1147.6C986.638 1327.81 1207.08 1370 1287.57 1241.82C1368.06 1113.65 1278.12 863.653 1086.68 683.442C895.242 503.231 674.801 461.047 594.312 589.221C513.822 717.395 603.763 967.391 795.201 1147.6Z" fill="#FF00D6"/>
</g>
<g filter="url(#filter20_f_1_2)">
<path d="M1027.78 883.424C1180.2 1026.91 1377.11 1026.43 1467.58 882.353C1558.06 738.278 1507.84 505.164 1355.42 361.68C1202.99 218.196 1006.09 218.675 915.61 362.751C825.135 506.827 875.354 739.94 1027.78 883.424Z" fill="#00E0FF"/>
</g>
</g>
</g>
<defs>
<filter id="filter0_d_1_2" x="0" y="0" width="1288" height="8290" filterUnits="userSpaceOnUse" color-interpolation-filters="sRGB">
<feFlood flood-opacity="0" result="BackgroundImageFix"/>
<feColorMatrix in="SourceAlpha" type="matrix" values="0 0 0 0 0 0 0 0 0 0 0 0 0 0 0 0 0 0 127 0" result="hardAlpha"/>
<feOffset dy="4"/>
<feGaussianBlur stdDeviation="2"/>
<feComposite in2="hardAlpha" operator="out"/>
<feColorMatrix type="matrix" values="0 0 0 0 0 0 0 0 0 0 0 0 0 0 0 0 0 0 0.25 0"/>
<feBlend mode="normal" in2="BackgroundImageFix" result="effect1_dropShadow_1_2"/>
<feBlend mode="normal" in="SourceGraphic" in2="effect1_dropShadow_1_2" result="shape"/>
</filter>
<filter id="filter1_f_1_2" x="-577.441" y="7229.52" width="1008.99" height="1052.05" filterUnits="userSpaceOnUse" color-interpolation-filters="sRGB">
<feFlood flood-opacity="0" result="BackgroundImageFix"/>
<feBlend mode="normal" in="SourceGraphic" in2="BackgroundImageFix" result="shape"/>
<feGaussianBlur stdDeviation="150" result="effect1_foregroundBlur_1_2"/>
</filter>
<filter id="filter2_f_1_2" x="-411.188" y="7082.38" width="949.053" height="1015.62" filterUnits="userSpaceOnUse" color-interpolation-filters="sRGB">
<feFlood flood-opacity="0" result="BackgroundImageFix"/>
<feBlend mode="normal" in="SourceGraphic" in2="BackgroundImageFix" result="shape"/>
<feGaussianBlur stdDeviation="150" result="effect1_foregroundBlur_1_2"/>
</filter>
<filter id="filter3_f_1_2" x="428.955" y="6962.19" width="1156.73" height="1315.21" filterUnits="userSpaceOnUse" color-interpolation-filters="sRGB">
<feFlood flood-opacity="0" result="BackgroundImageFix"/>
<feBlend mode="normal" in="SourceGraphic" in2="BackgroundImageFix" result="shape"/>
<feGaussianBlur stdDeviation="150" result="effect1_foregroundBlur_1_2"/>
</filter>
<filter id="filter4_f_1_2" x="694.339" y="6701.68" width="1099.61" height="1269.27" filterUnits="userSpaceOnUse" color-interpolation-filters="sRGB">
<feFlood flood-opacity="0" result="BackgroundImageFix"/>
<feBlend mode="normal" in="SourceGraphic" in2="BackgroundImageFix" result="shape"/>
<feGaussianBlur stdDeviation="150" result="effect1_foregroundBlur_1_2"/>
</filter>
<filter id="filter5_f_1_2" x="-384.329" y="5114.82" width="1008.99" height="1052.05" filterUnits="userSpaceOnUse" color-interpolation-filters="sRGB">
<feFlood flood-opacity="0" result="BackgroundImageFix"/>
<feBlend mode="normal" in="SourceGraphic" in2="BackgroundImageFix" result="shape"/>
<feGaussianBlur stdDeviation="150" result="effect1_foregroundBlur_1_2"/>
</filter>
<filter id="filter6_f_1_2" x="-218.076" y="4967.68" width="949.053" height="1015.62" filterUnits="userSpaceOnUse" color-interpolation-filters="sRGB">
<feFlood flood-opacity="0" result="BackgroundImageFix"/>
<feBlend mode="normal" in="SourceGraphic" in2="BackgroundImageFix" result="shape"/>
<feGaussianBlur stdDeviation="150" result="effect1_foregroundBlur_1_2"/>
</filter>
<filter id="filter7_f_1_2" x="512.719" y="6253.8" width="1008.99" height="1052.05" filterUnits="userSpaceOnUse" color-interpolation-filters="sRGB">
<feFlood flood-opacity="0" result="BackgroundImageFix"/>
<feBlend mode="normal" in="SourceGraphic" in2="BackgroundImageFix" result="shape"/>
<feGaussianBlur stdDeviation="150" result="effect1_foregroundBlur_1_2"/>
</filter>
<filter id="filter8_f_1_2" x="678.969" y="6106.66" width="949.053" height="1015.62" filterUnits="userSpaceOnUse" color-interpolation-filters="sRGB">
<feFlood flood-opacity="0" result="BackgroundImageFix"/>
<feBlend mode="normal" in="SourceGraphic" in2="BackgroundImageFix" result="shape"/>
<feGaussianBlur stdDeviation="150" result="effect1_foregroundBlur_1_2"/>
</filter>
<filter id="filter9_f_1_2" x="528.105" y="1526.64" width="1008.99" height="1035.45" filterUnits="userSpaceOnUse" color-interpolation-filters="sRGB">
<feFlood flood-opacity="0" result="BackgroundImageFix"/>
<feBlend mode="normal" in="SourceGraphic" in2="BackgroundImageFix" result="shape"/>
<feGaussianBlur stdDeviation="150" result="effect1_foregroundBlur_1_2"/>
</filter>
<filter id="filter10_f_1_2" x="694.359" y="1384.9" width="949.053" height="1000.36" filterUnits="userSpaceOnUse" color-interpolation-filters="sRGB">
<feFlood flood-opacity="0" result="BackgroundImageFix"/>
<feBlend mode="normal" in="SourceGraphic" in2="BackgroundImageFix" result="shape"/>
<feGaussianBlur stdDeviation="150" result="effect1_foregroundBlur_1_2"/>
</filter>
<filter id="filter11_f_1_2" x="526.105" y="4082.91" width="1008.99" height="1035.45" filterUnits="userSpaceOnUse" color-interpolation-filters="sRGB">
<feFlood flood-opacity="0" result="BackgroundImageFix"/>
<feBlend mode="normal" in="SourceGraphic" in2="BackgroundImageFix" result="shape"/>
<feGaussianBlur stdDeviation="150" result="effect1_foregroundBlur_1_2"/>
</filter>
<filter id="filter12_f_1_2" x="692.359" y="3941.17" width="949.053" height="1000.36" filterUnits="userSpaceOnUse" color-interpolation-filters="sRGB">
<feFlood flood-opacity="0" result="BackgroundImageFix"/>
<feBlend mode="normal" in="SourceGraphic" in2="BackgroundImageFix" result="shape"/>
<feGaussianBlur stdDeviation="150" result="effect1_foregroundBlur_1_2"/>
</filter>
<filter id="filter13_f_1_2" x="-343.252" y="2714.19" width="860.663" height="1181.7" filterUnits="userSpaceOnUse" color-interpolation-filters="sRGB">
<feFlood flood-opacity="0" result="BackgroundImageFix"/>
<feBlend mode="normal" in="SourceGraphic" in2="BackgroundImageFix" result="shape"/>
<feGaussianBlur stdDeviation="150" result="effect1_foregroundBlur_1_2"/>
</filter>
<filter id="filter14_f_1_2" x="-174.472" y="2819.02" width="892.478" height="1063.3" filterUnits="userSpaceOnUse" color-interpolation-filters="sRGB">
<feFlood flood-opacity="0" result="BackgroundImageFix"/>
<feBlend mode="normal" in="SourceGraphic" in2="BackgroundImageFix" result="shape"/>
<feGaussianBlur stdDeviation="150" result="effect1_foregroundBlur_1_2"/>
</filter>
<filter id="filter15_f_1_2" x="526.105" y="3918.34" width="1008.99" height="1035.45" filterUnits="userSpaceOnUse" color-interpolation-filters="sRGB">
<feFlood flood-opacity="0" result="BackgroundImageFix"/>
<feBlend mode="normal" in="SourceGraphic" in2="BackgroundImageFix" result="shape"/>
<feGaussianBlur stdDeviation="150" result="effect1_foregroundBlur_1_2"/>
</filter>
<filter id="filter16_f_1_2" x="692.359" y="3776.6" width="949.053" height="1000.36" filterUnits="userSpaceOnUse" color-interpolation-filters="sRGB">
<feFlood flood-opacity="0" result="BackgroundImageFix"/>
<feBlend mode="normal" in="SourceGraphic" in2="BackgroundImageFix" result="shape"/>
<feGaussianBlur stdDeviation="150" result="effect1_foregroundBlur_1_2"/>
</filter>
<filter id="filter17_f_1_2" x="-343.252" y="2796.07" width="860.663" height="1181.7" filterUnits="userSpaceOnUse" color-interpolation-filters="sRGB">
<feFlood flood-opacity="0" result="BackgroundImageFix"/>
<feBlend mode="normal" in="SourceGraphic" in2="BackgroundImageFix" result="shape"/>
<feGaussianBlur stdDeviation="150" result="effect1_foregroundBlur_1_2"/>
</filter>
<filter id="filter18_f_1_2" x="-174.472" y="2900.9" width="892.478" height="1063.3" filterUnits="userSpaceOnUse" color-interpolation-filters="sRGB">
<feFlood flood-opacity="0" result="BackgroundImageFix"/>
<feBlend mode="normal" in="SourceGraphic" in2="BackgroundImageFix" result="shape"/>
<feGaussianBlur stdDeviation="150" result="effect1_foregroundBlur_1_2"/>
</filter>
<filter id="filter19_f_1_2" x="264.822" y="215.074" width="1352.24" height="1400.9" filterUnits="userSpaceOnUse" color-interpolation-filters="sRGB">
<feFlood flood-opacity="0" result="BackgroundImageFix"/>
<feBlend mode="normal" in="SourceGraphic" in2="BackgroundImageFix" result="shape"/>
<feGaussianBlur stdDeviation="150" result="effect1_foregroundBlur_1_2"/>
</filter>
<filter id="filter20_f_1_2" x="570.602" y="-45.6204" width="1241.99" height="1336.34" filterUnits="userSpaceOnUse" color-interpolation-filters="sRGB">
<feFlood flood-opacity="0" result="BackgroundImageFix"/>
<feBlend mode="normal" in="SourceGraphic" in2="BackgroundImageFix" result="shape"/>
<feGaussianBlur stdDeviation="150" result="effect1_foregroundBlur_1_2"/>
</filter>
<clipPath id="clip0_1_2">
<rect width="1280" height="8282" fill="white" transform="translate(4)"/>
</clipPath>
</defs>
</svg>
