<svg width="249" height="172" viewBox="0 0 249 172" fill="none" xmlns="http://www.w3.org/2000/svg">
<circle cx="246.629" cy="169.761" r="2" transform="rotate(-180 246.629 169.761)" fill="white"/>
<circle cx="116.227" cy="169.761" r="2" transform="rotate(-180 116.227 169.761)" fill="white"/>
<circle cx="246.629" cy="78.7842" r="2" transform="rotate(-180 246.629 78.7842)" fill="white"/>
<circle cx="116.227" cy="78.7842" r="2" transform="rotate(-180 116.227 78.7842)" fill="white"/>
<circle cx="230.452" cy="169.761" r="2" transform="rotate(-180 230.452 169.761)" fill="white"/>
<circle cx="100.054" cy="169.761" r="2" transform="rotate(-180 100.054 169.761)" fill="white"/>
<circle cx="230.452" cy="78.7842" r="2" transform="rotate(-180 230.452 78.7842)" fill="white"/>
<circle cx="100.054" cy="78.7842" r="2" transform="rotate(-180 100.054 78.7842)" fill="white"/>
<circle cx="214.281" cy="169.761" r="2" transform="rotate(-180 214.281 169.761)" fill="white"/>
<circle cx="83.8835" cy="169.761" r="2" transform="rotate(-180 83.8835 169.761)" fill="white"/>
<circle cx="214.281" cy="78.7842" r="2" transform="rotate(-180 214.281 78.7842)" fill="white"/>
<circle cx="83.8835" cy="78.7842" r="2" transform="rotate(-180 83.8835 78.7842)" fill="white"/>
<circle cx="198.109" cy="169.761" r="2" transform="rotate(-180 198.109 169.761)" fill="white"/>
<circle cx="67.7068" cy="169.761" r="2" transform="rotate(-180 67.7068 169.761)" fill="white"/>
<circle cx="198.109" cy="78.7842" r="2" transform="rotate(-180 198.109 78.7842)" fill="white"/>
<circle cx="67.7068" cy="78.7842" r="2" transform="rotate(-180 67.7068 78.7842)" fill="white"/>
<circle cx="180.923" cy="169.761" r="2" transform="rotate(-180 180.923 169.761)" fill="white"/>
<circle cx="50.5251" cy="169.761" r="2" transform="rotate(-180 50.5251 169.761)" fill="white"/>
<circle cx="180.923" cy="78.7842" r="2" transform="rotate(-180 180.923 78.7842)" fill="white"/>
<circle cx="50.5251" cy="78.7842" r="2" transform="rotate(-180 50.5251 78.7842)" fill="white"/>
<circle cx="164.754" cy="169.761" r="2" transform="rotate(-180 164.754 169.761)" fill="white"/>
<circle cx="34.3494" cy="169.761" r="2" transform="rotate(-180 34.3494 169.761)" fill="white"/>
<circle cx="164.754" cy="78.7842" r="2" transform="rotate(-180 164.754 78.7842)" fill="white"/>
<circle cx="34.3494" cy="78.7842" r="2" transform="rotate(-180 34.3494 78.7842)" fill="white"/>
<circle cx="148.577" cy="169.761" r="2" transform="rotate(-180 148.577 169.761)" fill="white"/>
<circle cx="18.1746" cy="169.761" r="2" transform="rotate(-180 18.1746 169.761)" fill="white"/>
<circle cx="148.577" cy="78.7842" r="2" transform="rotate(-180 148.577 78.7842)" fill="white"/>
<circle cx="18.1746" cy="78.7842" r="2" transform="rotate(-180 18.1746 78.7842)" fill="white"/>
<circle cx="132.401" cy="169.761" r="2" transform="rotate(-180 132.401 169.761)" fill="white"/>
<circle cx="1.99976" cy="169.761" r="2" transform="rotate(-180 1.99976 169.761)" fill="white"/>
<circle cx="132.401" cy="78.7842" r="2" transform="rotate(-180 132.401 78.7842)" fill="white"/>
<circle cx="1.99976" cy="78.7842" r="2" transform="rotate(-180 1.99976 78.7842)" fill="white"/>
<circle cx="246.629" cy="154.598" r="2" transform="rotate(-180 246.629 154.598)" fill="white"/>
<circle cx="116.227" cy="154.598" r="2" transform="rotate(-180 116.227 154.598)" fill="white"/>
<circle cx="246.629" cy="63.6211" r="2" transform="rotate(-180 246.629 63.6211)" fill="white"/>
<circle cx="116.227" cy="63.6211" r="2" transform="rotate(-180 116.227 63.6211)" fill="white"/>
<circle cx="230.452" cy="154.598" r="2" transform="rotate(-180 230.452 154.598)" fill="white"/>
<circle cx="100.054" cy="154.598" r="2" transform="rotate(-180 100.054 154.598)" fill="white"/>
<circle cx="230.452" cy="63.6211" r="2" transform="rotate(-180 230.452 63.6211)" fill="white"/>
<circle cx="100.054" cy="63.6211" r="2" transform="rotate(-180 100.054 63.6211)" fill="white"/>
<circle cx="214.281" cy="154.598" r="2" transform="rotate(-180 214.281 154.598)" fill="white"/>
<circle cx="83.8835" cy="154.598" r="2" transform="rotate(-180 83.8835 154.598)" fill="white"/>
<circle cx="214.281" cy="63.6211" r="2" transform="rotate(-180 214.281 63.6211)" fill="white"/>
<circle cx="83.8835" cy="63.6211" r="2" transform="rotate(-180 83.8835 63.6211)" fill="white"/>
<circle cx="198.109" cy="154.598" r="2" transform="rotate(-180 198.109 154.598)" fill="white"/>
<circle cx="67.7068" cy="154.598" r="2" transform="rotate(-180 67.7068 154.598)" fill="white"/>
<circle cx="198.109" cy="63.6211" r="2" transform="rotate(-180 198.109 63.6211)" fill="white"/>
<circle cx="67.7068" cy="63.6211" r="2" transform="rotate(-180 67.7068 63.6211)" fill="white"/>
<circle cx="180.923" cy="154.598" r="2" transform="rotate(-180 180.923 154.598)" fill="white"/>
<circle cx="50.5251" cy="154.598" r="2" transform="rotate(-180 50.5251 154.598)" fill="white"/>
<circle cx="180.923" cy="63.6211" r="2" transform="rotate(-180 180.923 63.6211)" fill="white"/>
<circle cx="50.5251" cy="63.6211" r="2" transform="rotate(-180 50.5251 63.6211)" fill="white"/>
<circle cx="164.754" cy="154.598" r="2" transform="rotate(-180 164.754 154.598)" fill="white"/>
<circle cx="34.3494" cy="154.598" r="2" transform="rotate(-180 34.3494 154.598)" fill="white"/>
<circle cx="164.754" cy="63.6211" r="2" transform="rotate(-180 164.754 63.6211)" fill="white"/>
<circle cx="34.3494" cy="63.6211" r="2" transform="rotate(-180 34.3494 63.6211)" fill="white"/>
<circle cx="148.577" cy="154.598" r="2" transform="rotate(-180 148.577 154.598)" fill="white"/>
<circle cx="18.1746" cy="154.598" r="2" transform="rotate(-180 18.1746 154.598)" fill="white"/>
<circle cx="148.577" cy="63.6211" r="2" transform="rotate(-180 148.577 63.6211)" fill="white"/>
<circle cx="18.1746" cy="63.6211" r="2" transform="rotate(-180 18.1746 63.6211)" fill="white"/>
<circle cx="132.401" cy="154.598" r="2" transform="rotate(-180 132.401 154.598)" fill="white"/>
<circle cx="1.99976" cy="154.598" r="2" transform="rotate(-180 1.99976 154.598)" fill="white"/>
<circle cx="132.401" cy="63.6211" r="2" transform="rotate(-180 132.401 63.6211)" fill="white"/>
<circle cx="1.99976" cy="63.6211" r="2" transform="rotate(-180 1.99976 63.6211)" fill="white"/>
<circle cx="246.629" cy="139.437" r="2" transform="rotate(-180 246.629 139.437)" fill="white"/>
<circle cx="116.227" cy="139.436" r="2" transform="rotate(-180 116.227 139.436)" fill="white"/>
<circle cx="246.629" cy="48.458" r="2" transform="rotate(-180 246.629 48.458)" fill="white"/>
<circle cx="116.227" cy="48.458" r="2" transform="rotate(-180 116.227 48.458)" fill="white"/>
<circle cx="230.452" cy="139.436" r="2" transform="rotate(-180 230.452 139.436)" fill="white"/>
<circle cx="100.054" cy="139.436" r="2" transform="rotate(-180 100.054 139.436)" fill="white"/>
<circle cx="230.452" cy="48.458" r="2" transform="rotate(-180 230.452 48.458)" fill="white"/>
<circle cx="100.054" cy="48.458" r="2" transform="rotate(-180 100.054 48.458)" fill="white"/>
<circle cx="214.281" cy="139.436" r="2" transform="rotate(-180 214.281 139.436)" fill="white"/>
<circle cx="83.8835" cy="139.436" r="2" transform="rotate(-180 83.8835 139.436)" fill="white"/>
<circle cx="214.281" cy="48.458" r="2" transform="rotate(-180 214.281 48.458)" fill="white"/>
<circle cx="83.8835" cy="48.458" r="2" transform="rotate(-180 83.8835 48.458)" fill="white"/>
<circle cx="198.109" cy="139.436" r="2" transform="rotate(-180 198.109 139.436)" fill="white"/>
<circle cx="67.7068" cy="139.436" r="2" transform="rotate(-180 67.7068 139.436)" fill="white"/>
<circle cx="198.109" cy="48.458" r="2" transform="rotate(-180 198.109 48.458)" fill="white"/>
<circle cx="67.7068" cy="48.458" r="2" transform="rotate(-180 67.7068 48.458)" fill="white"/>
<circle cx="180.923" cy="139.436" r="2" transform="rotate(-180 180.923 139.436)" fill="white"/>
<circle cx="50.5251" cy="139.436" r="2" transform="rotate(-180 50.5251 139.436)" fill="white"/>
<circle cx="180.923" cy="48.458" r="2" transform="rotate(-180 180.923 48.458)" fill="white"/>
<circle cx="50.5251" cy="48.458" r="2" transform="rotate(-180 50.5251 48.458)" fill="white"/>
<circle cx="164.754" cy="139.436" r="2" transform="rotate(-180 164.754 139.436)" fill="white"/>
<circle cx="34.3494" cy="139.436" r="2" transform="rotate(-180 34.3494 139.436)" fill="white"/>
<circle cx="164.754" cy="48.458" r="2" transform="rotate(-180 164.754 48.458)" fill="white"/>
<circle cx="34.3494" cy="48.458" r="2" transform="rotate(-180 34.3494 48.458)" fill="white"/>
<circle cx="148.577" cy="139.436" r="2" transform="rotate(-180 148.577 139.436)" fill="white"/>
<circle cx="18.1746" cy="139.436" r="2" transform="rotate(-180 18.1746 139.436)" fill="white"/>
<circle cx="148.577" cy="48.458" r="2" transform="rotate(-180 148.577 48.458)" fill="white"/>
<circle cx="18.1746" cy="48.458" r="2" transform="rotate(-180 18.1746 48.458)" fill="white"/>
<circle cx="132.401" cy="139.436" r="2" transform="rotate(-180 132.401 139.436)" fill="white"/>
<circle cx="1.99976" cy="139.436" r="2" transform="rotate(-180 1.99976 139.436)" fill="white"/>
<circle cx="132.401" cy="48.458" r="2" transform="rotate(-180 132.401 48.458)" fill="white"/>
<circle cx="1.99976" cy="48.458" r="2" transform="rotate(-180 1.99976 48.458)" fill="white"/>
<circle cx="246.629" cy="124.271" r="2" transform="rotate(-180 246.629 124.271)" fill="white"/>
<circle cx="116.227" cy="124.271" r="2" transform="rotate(-180 116.227 124.271)" fill="white"/>
<circle cx="246.629" cy="33.2969" r="2" transform="rotate(-180 246.629 33.2969)" fill="white"/>
<circle cx="116.227" cy="33.2949" r="2" transform="rotate(-180 116.227 33.2949)" fill="white"/>
<circle cx="230.452" cy="124.271" r="2" transform="rotate(-180 230.452 124.271)" fill="white"/>
<circle cx="100.054" cy="124.271" r="2" transform="rotate(-180 100.054 124.271)" fill="white"/>
<circle cx="230.452" cy="33.2949" r="2" transform="rotate(-180 230.452 33.2949)" fill="white"/>
<circle cx="100.054" cy="33.2949" r="2" transform="rotate(-180 100.054 33.2949)" fill="white"/>
<circle cx="214.281" cy="124.271" r="2" transform="rotate(-180 214.281 124.271)" fill="white"/>
<circle cx="83.8835" cy="124.271" r="2" transform="rotate(-180 83.8835 124.271)" fill="white"/>
<circle cx="214.281" cy="33.2949" r="2" transform="rotate(-180 214.281 33.2949)" fill="white"/>
<circle cx="83.8835" cy="33.2949" r="2" transform="rotate(-180 83.8835 33.2949)" fill="white"/>
<circle cx="198.109" cy="124.271" r="2" transform="rotate(-180 198.109 124.271)" fill="white"/>
<circle cx="67.7068" cy="124.271" r="2" transform="rotate(-180 67.7068 124.271)" fill="white"/>
<circle cx="198.109" cy="33.2949" r="2" transform="rotate(-180 198.109 33.2949)" fill="white"/>
<circle cx="67.7068" cy="33.2949" r="2" transform="rotate(-180 67.7068 33.2949)" fill="white"/>
<circle cx="180.923" cy="124.271" r="2" transform="rotate(-180 180.923 124.271)" fill="white"/>
<circle cx="50.5251" cy="124.271" r="2" transform="rotate(-180 50.5251 124.271)" fill="white"/>
<circle cx="180.923" cy="33.2949" r="2" transform="rotate(-180 180.923 33.2949)" fill="white"/>
<circle cx="50.5251" cy="33.2949" r="2" transform="rotate(-180 50.5251 33.2949)" fill="white"/>
<circle cx="164.754" cy="124.271" r="2" transform="rotate(-180 164.754 124.271)" fill="white"/>
<circle cx="34.3494" cy="124.271" r="2" transform="rotate(-180 34.3494 124.271)" fill="white"/>
<circle cx="164.754" cy="33.2949" r="2" transform="rotate(-180 164.754 33.2949)" fill="white"/>
<circle cx="34.3494" cy="33.2949" r="2" transform="rotate(-180 34.3494 33.2949)" fill="white"/>
<circle cx="148.577" cy="124.271" r="2" transform="rotate(-180 148.577 124.271)" fill="white"/>
<circle cx="18.1746" cy="124.271" r="2" transform="rotate(-180 18.1746 124.271)" fill="white"/>
<circle cx="148.577" cy="33.2949" r="2" transform="rotate(-180 148.577 33.2949)" fill="white"/>
<circle cx="18.1746" cy="33.2949" r="2" transform="rotate(-180 18.1746 33.2949)" fill="white"/>
<circle cx="132.401" cy="124.271" r="2" transform="rotate(-180 132.401 124.271)" fill="white"/>
<circle cx="1.99976" cy="124.271" r="2" transform="rotate(-180 1.99976 124.271)" fill="white"/>
<circle cx="132.401" cy="33.2949" r="2" transform="rotate(-180 132.401 33.2949)" fill="white"/>
<circle cx="1.99976" cy="33.2949" r="2" transform="rotate(-180 1.99976 33.2949)" fill="white"/>
<circle cx="246.629" cy="109.111" r="2" transform="rotate(-180 246.629 109.111)" fill="white"/>
<circle cx="116.227" cy="109.111" r="2" transform="rotate(-180 116.227 109.111)" fill="white"/>
<circle cx="246.629" cy="18.1328" r="2" transform="rotate(-180 246.629 18.1328)" fill="white"/>
<circle cx="116.227" cy="18.1328" r="2" transform="rotate(-180 116.227 18.1328)" fill="white"/>
<circle cx="230.452" cy="109.111" r="2" transform="rotate(-180 230.452 109.111)" fill="white"/>
<circle cx="100.054" cy="109.111" r="2" transform="rotate(-180 100.054 109.111)" fill="white"/>
<circle cx="230.452" cy="18.1328" r="2" transform="rotate(-180 230.452 18.1328)" fill="white"/>
<circle cx="100.054" cy="18.1328" r="2" transform="rotate(-180 100.054 18.1328)" fill="white"/>
<circle cx="214.281" cy="109.111" r="2" transform="rotate(-180 214.281 109.111)" fill="white"/>
<circle cx="83.8835" cy="109.111" r="2" transform="rotate(-180 83.8835 109.111)" fill="white"/>
<circle cx="214.281" cy="18.1328" r="2" transform="rotate(-180 214.281 18.1328)" fill="white"/>
<circle cx="83.8835" cy="18.1328" r="2" transform="rotate(-180 83.8835 18.1328)" fill="white"/>
<circle cx="198.109" cy="109.111" r="2" transform="rotate(-180 198.109 109.111)" fill="white"/>
<circle cx="67.7068" cy="109.111" r="2" transform="rotate(-180 67.7068 109.111)" fill="white"/>
<circle cx="198.109" cy="18.1328" r="2" transform="rotate(-180 198.109 18.1328)" fill="white"/>
<circle cx="67.7068" cy="18.1328" r="2" transform="rotate(-180 67.7068 18.1328)" fill="white"/>
<circle cx="180.923" cy="109.111" r="2" transform="rotate(-180 180.923 109.111)" fill="white"/>
<circle cx="50.5251" cy="109.111" r="2" transform="rotate(-180 50.5251 109.111)" fill="white"/>
<circle cx="180.923" cy="18.1328" r="2" transform="rotate(-180 180.923 18.1328)" fill="white"/>
<circle cx="50.5251" cy="18.1328" r="2" transform="rotate(-180 50.5251 18.1328)" fill="white"/>
<circle cx="164.754" cy="109.111" r="2" transform="rotate(-180 164.754 109.111)" fill="white"/>
<circle cx="34.3494" cy="109.111" r="2" transform="rotate(-180 34.3494 109.111)" fill="white"/>
<circle cx="164.754" cy="18.1328" r="2" transform="rotate(-180 164.754 18.1328)" fill="white"/>
<circle cx="34.3494" cy="18.1328" r="2" transform="rotate(-180 34.3494 18.1328)" fill="white"/>
<circle cx="148.577" cy="109.111" r="2" transform="rotate(-180 148.577 109.111)" fill="white"/>
<circle cx="18.1746" cy="109.111" r="2" transform="rotate(-180 18.1746 109.111)" fill="white"/>
<circle cx="148.577" cy="18.1328" r="2" transform="rotate(-180 148.577 18.1328)" fill="white"/>
<circle cx="18.1746" cy="18.1328" r="2" transform="rotate(-180 18.1746 18.1328)" fill="white"/>
<circle cx="132.401" cy="109.111" r="2" transform="rotate(-180 132.401 109.111)" fill="white"/>
<circle cx="1.99976" cy="109.111" r="2" transform="rotate(-180 1.99976 109.111)" fill="white"/>
<circle cx="132.401" cy="18.1328" r="2" transform="rotate(-180 132.401 18.1328)" fill="white"/>
<circle cx="1.99976" cy="18.1328" r="2" transform="rotate(-180 1.99976 18.1328)" fill="white"/>
<circle cx="246.629" cy="93.9453" r="2" transform="rotate(-180 246.629 93.9453)" fill="white"/>
<circle cx="116.227" cy="93.9453" r="2" transform="rotate(-180 116.227 93.9453)" fill="white"/>
<circle cx="246.629" cy="2.96973" r="2" transform="rotate(-180 246.629 2.96973)" fill="white"/>
<circle cx="116.227" cy="2.96973" r="2" transform="rotate(-180 116.227 2.96973)" fill="white"/>
<circle cx="230.452" cy="93.9453" r="2" transform="rotate(-180 230.452 93.9453)" fill="white"/>
<circle cx="100.054" cy="93.9453" r="2" transform="rotate(-180 100.054 93.9453)" fill="white"/>
<circle cx="230.452" cy="2.96973" r="2" transform="rotate(-180 230.452 2.96973)" fill="white"/>
<circle cx="100.054" cy="2.96973" r="2" transform="rotate(-180 100.054 2.96973)" fill="white"/>
<circle cx="214.281" cy="93.9453" r="2" transform="rotate(-180 214.281 93.9453)" fill="white"/>
<circle cx="83.8835" cy="93.9453" r="2" transform="rotate(-180 83.8835 93.9453)" fill="white"/>
<circle cx="214.281" cy="2.96973" r="2" transform="rotate(-180 214.281 2.96973)" fill="white"/>
<circle cx="83.8835" cy="2.96973" r="2" transform="rotate(-180 83.8835 2.96973)" fill="white"/>
<circle cx="198.109" cy="93.9453" r="2" transform="rotate(-180 198.109 93.9453)" fill="white"/>
<circle cx="67.7068" cy="93.9453" r="2" transform="rotate(-180 67.7068 93.9453)" fill="white"/>
<circle cx="198.109" cy="2.96973" r="2" transform="rotate(-180 198.109 2.96973)" fill="white"/>
<circle cx="67.7068" cy="2.96973" r="2" transform="rotate(-180 67.7068 2.96973)" fill="white"/>
<circle cx="180.923" cy="93.9453" r="2" transform="rotate(-180 180.923 93.9453)" fill="white"/>
<circle cx="50.5251" cy="93.9453" r="2" transform="rotate(-180 50.5251 93.9453)" fill="white"/>
<circle cx="180.923" cy="2.96973" r="2" transform="rotate(-180 180.923 2.96973)" fill="white"/>
<circle cx="50.5251" cy="2.96973" r="2" transform="rotate(-180 50.5251 2.96973)" fill="white"/>
<circle cx="164.754" cy="93.9453" r="2" transform="rotate(-180 164.754 93.9453)" fill="white"/>
<circle cx="34.3494" cy="93.9453" r="2" transform="rotate(-180 34.3494 93.9453)" fill="white"/>
<circle cx="164.754" cy="2.96973" r="2" transform="rotate(-180 164.754 2.96973)" fill="white"/>
<circle cx="34.3494" cy="2.96973" r="2" transform="rotate(-180 34.3494 2.96973)" fill="white"/>
<circle cx="148.577" cy="93.9453" r="2" transform="rotate(-180 148.577 93.9453)" fill="white"/>
<circle cx="18.1746" cy="93.9453" r="2" transform="rotate(-180 18.1746 93.9453)" fill="white"/>
<circle cx="148.577" cy="2.96973" r="2" transform="rotate(-180 148.577 2.96973)" fill="white"/>
<circle cx="18.1746" cy="2.96973" r="2" transform="rotate(-180 18.1746 2.96973)" fill="white"/>
<circle cx="132.401" cy="93.9453" r="2" transform="rotate(-180 132.401 93.9453)" fill="white"/>
<circle cx="1.99976" cy="93.9453" r="2" transform="rotate(-180 1.99976 93.9453)" fill="white"/>
<circle cx="132.401" cy="2.96973" r="2" transform="rotate(-180 132.401 2.96973)" fill="white"/>
<circle cx="1.99976" cy="2.96973" r="2" transform="rotate(-180 1.99976 2.96973)" fill="white"/>
</svg>
