<svg width="171" height="249" viewBox="0 0 171 249" fill="none" xmlns="http://www.w3.org/2000/svg">
<circle cx="168.791" cy="2" r="2" transform="rotate(90 168.791 2)" fill="white"/>
<circle cx="168.791" cy="132.401" r="2" transform="rotate(90 168.791 132.401)" fill="white"/>
<circle cx="77.8142" cy="2" r="2" transform="rotate(90 77.8142 2)" fill="white"/>
<circle cx="77.8142" cy="132.401" r="2" transform="rotate(90 77.8142 132.401)" fill="white"/>
<circle cx="168.791" cy="18.1763" r="2" transform="rotate(90 168.791 18.1763)" fill="white"/>
<circle cx="168.791" cy="148.574" r="2" transform="rotate(90 168.791 148.574)" fill="white"/>
<circle cx="77.8142" cy="18.1763" r="2" transform="rotate(90 77.8142 18.1763)" fill="white"/>
<circle cx="77.8142" cy="148.574" r="2" transform="rotate(90 77.8142 148.574)" fill="white"/>
<circle cx="168.791" cy="34.3477" r="2" transform="rotate(90 168.791 34.3477)" fill="white"/>
<circle cx="168.791" cy="164.745" r="2" transform="rotate(90 168.791 164.745)" fill="white"/>
<circle cx="77.8142" cy="34.3477" r="2" transform="rotate(90 77.8142 34.3477)" fill="white"/>
<circle cx="77.8142" cy="164.745" r="2" transform="rotate(90 77.8142 164.745)" fill="white"/>
<circle cx="168.791" cy="50.519" r="2" transform="rotate(90 168.791 50.519)" fill="white"/>
<circle cx="168.791" cy="180.921" r="2" transform="rotate(90 168.791 180.921)" fill="white"/>
<circle cx="77.8142" cy="50.519" r="2" transform="rotate(90 77.8142 50.519)" fill="white"/>
<circle cx="77.8142" cy="180.921" r="2" transform="rotate(90 77.8142 180.921)" fill="white"/>
<circle cx="168.791" cy="67.7056" r="2" transform="rotate(90 168.791 67.7056)" fill="white"/>
<circle cx="168.791" cy="198.103" r="2" transform="rotate(90 168.791 198.103)" fill="white"/>
<circle cx="77.8142" cy="67.7056" r="2" transform="rotate(90 77.8142 67.7056)" fill="white"/>
<circle cx="77.8142" cy="198.103" r="2" transform="rotate(90 77.8142 198.103)" fill="white"/>
<circle cx="168.791" cy="83.875" r="2" transform="rotate(90 168.791 83.875)" fill="white"/>
<circle cx="168.791" cy="214.279" r="2" transform="rotate(90 168.791 214.279)" fill="white"/>
<circle cx="77.8142" cy="83.875" r="2" transform="rotate(90 77.8142 83.875)" fill="white"/>
<circle cx="77.8142" cy="214.279" r="2" transform="rotate(90 77.8142 214.279)" fill="white"/>
<circle cx="168.791" cy="100.052" r="2" transform="rotate(90 168.791 100.052)" fill="white"/>
<circle cx="168.791" cy="230.454" r="2" transform="rotate(90 168.791 230.454)" fill="white"/>
<circle cx="77.8142" cy="100.052" r="2" transform="rotate(90 77.8142 100.052)" fill="white"/>
<circle cx="77.8142" cy="230.454" r="2" transform="rotate(90 77.8142 230.454)" fill="white"/>
<circle cx="168.791" cy="116.228" r="2" transform="rotate(90 168.791 116.228)" fill="white"/>
<circle cx="168.791" cy="246.629" r="2" transform="rotate(90 168.791 246.629)" fill="white"/>
<circle cx="77.8142" cy="116.228" r="2" transform="rotate(90 77.8142 116.228)" fill="white"/>
<circle cx="77.8142" cy="246.629" r="2" transform="rotate(90 77.8142 246.629)" fill="white"/>
<circle cx="153.628" cy="2" r="2" transform="rotate(90 153.628 2)" fill="white"/>
<circle cx="153.628" cy="132.401" r="2" transform="rotate(90 153.628 132.401)" fill="white"/>
<circle cx="62.6511" cy="2" r="2" transform="rotate(90 62.6511 2)" fill="white"/>
<circle cx="62.6511" cy="132.401" r="2" transform="rotate(90 62.6511 132.401)" fill="white"/>
<circle cx="153.628" cy="18.1763" r="2" transform="rotate(90 153.628 18.1763)" fill="white"/>
<circle cx="153.628" cy="148.574" r="2" transform="rotate(90 153.628 148.574)" fill="white"/>
<circle cx="62.6511" cy="18.1763" r="2" transform="rotate(90 62.6511 18.1763)" fill="white"/>
<circle cx="62.6511" cy="148.574" r="2" transform="rotate(90 62.6511 148.574)" fill="white"/>
<circle cx="153.628" cy="34.3477" r="2" transform="rotate(90 153.628 34.3477)" fill="white"/>
<circle cx="153.628" cy="164.745" r="2" transform="rotate(90 153.628 164.745)" fill="white"/>
<circle cx="62.6511" cy="34.3477" r="2" transform="rotate(90 62.6511 34.3477)" fill="white"/>
<circle cx="62.6511" cy="164.745" r="2" transform="rotate(90 62.6511 164.745)" fill="white"/>
<circle cx="153.628" cy="50.519" r="2" transform="rotate(90 153.628 50.519)" fill="white"/>
<circle cx="153.628" cy="180.921" r="2" transform="rotate(90 153.628 180.921)" fill="white"/>
<circle cx="62.6511" cy="50.519" r="2" transform="rotate(90 62.6511 50.519)" fill="white"/>
<circle cx="62.6511" cy="180.921" r="2" transform="rotate(90 62.6511 180.921)" fill="white"/>
<circle cx="153.628" cy="67.7056" r="2" transform="rotate(90 153.628 67.7056)" fill="white"/>
<circle cx="153.628" cy="198.103" r="2" transform="rotate(90 153.628 198.103)" fill="white"/>
<circle cx="62.6511" cy="67.7056" r="2" transform="rotate(90 62.6511 67.7056)" fill="white"/>
<circle cx="62.6511" cy="198.103" r="2" transform="rotate(90 62.6511 198.103)" fill="white"/>
<circle cx="153.628" cy="83.875" r="2" transform="rotate(90 153.628 83.875)" fill="white"/>
<circle cx="153.628" cy="214.279" r="2" transform="rotate(90 153.628 214.279)" fill="white"/>
<circle cx="62.6511" cy="83.875" r="2" transform="rotate(90 62.6511 83.875)" fill="white"/>
<circle cx="62.6511" cy="214.279" r="2" transform="rotate(90 62.6511 214.279)" fill="white"/>
<circle cx="153.628" cy="100.052" r="2" transform="rotate(90 153.628 100.052)" fill="white"/>
<circle cx="153.628" cy="230.454" r="2" transform="rotate(90 153.628 230.454)" fill="white"/>
<circle cx="62.6511" cy="100.052" r="2" transform="rotate(90 62.6511 100.052)" fill="white"/>
<circle cx="62.6511" cy="230.454" r="2" transform="rotate(90 62.6511 230.454)" fill="white"/>
<circle cx="153.628" cy="116.228" r="2" transform="rotate(90 153.628 116.228)" fill="white"/>
<circle cx="153.628" cy="246.629" r="2" transform="rotate(90 153.628 246.629)" fill="white"/>
<circle cx="62.6511" cy="116.228" r="2" transform="rotate(90 62.6511 116.228)" fill="white"/>
<circle cx="62.6511" cy="246.629" r="2" transform="rotate(90 62.6511 246.629)" fill="white"/>
<circle cx="138.467" cy="2" r="2" transform="rotate(90 138.467 2)" fill="white"/>
<circle cx="138.466" cy="132.401" r="2" transform="rotate(90 138.466 132.401)" fill="white"/>
<circle cx="47.488" cy="2" r="2" transform="rotate(90 47.488 2)" fill="white"/>
<circle cx="47.488" cy="132.401" r="2" transform="rotate(90 47.488 132.401)" fill="white"/>
<circle cx="138.466" cy="18.1763" r="2" transform="rotate(90 138.466 18.1763)" fill="white"/>
<circle cx="138.466" cy="148.574" r="2" transform="rotate(90 138.466 148.574)" fill="white"/>
<circle cx="47.488" cy="18.1763" r="2" transform="rotate(90 47.488 18.1763)" fill="white"/>
<circle cx="47.488" cy="148.574" r="2" transform="rotate(90 47.488 148.574)" fill="white"/>
<circle cx="138.466" cy="34.3477" r="2" transform="rotate(90 138.466 34.3477)" fill="white"/>
<circle cx="138.466" cy="164.745" r="2" transform="rotate(90 138.466 164.745)" fill="white"/>
<circle cx="47.488" cy="34.3477" r="2" transform="rotate(90 47.488 34.3477)" fill="white"/>
<circle cx="47.488" cy="164.745" r="2" transform="rotate(90 47.488 164.745)" fill="white"/>
<circle cx="138.466" cy="50.519" r="2" transform="rotate(90 138.466 50.519)" fill="white"/>
<circle cx="138.466" cy="180.921" r="2" transform="rotate(90 138.466 180.921)" fill="white"/>
<circle cx="47.488" cy="50.519" r="2" transform="rotate(90 47.488 50.519)" fill="white"/>
<circle cx="47.488" cy="180.921" r="2" transform="rotate(90 47.488 180.921)" fill="white"/>
<circle cx="138.466" cy="67.7056" r="2" transform="rotate(90 138.466 67.7056)" fill="white"/>
<circle cx="138.466" cy="198.103" r="2" transform="rotate(90 138.466 198.103)" fill="white"/>
<circle cx="47.488" cy="67.7056" r="2" transform="rotate(90 47.488 67.7056)" fill="white"/>
<circle cx="47.488" cy="198.103" r="2" transform="rotate(90 47.488 198.103)" fill="white"/>
<circle cx="138.466" cy="83.875" r="2" transform="rotate(90 138.466 83.875)" fill="white"/>
<circle cx="138.466" cy="214.279" r="2" transform="rotate(90 138.466 214.279)" fill="white"/>
<circle cx="47.488" cy="83.875" r="2" transform="rotate(90 47.488 83.875)" fill="white"/>
<circle cx="47.488" cy="214.279" r="2" transform="rotate(90 47.488 214.279)" fill="white"/>
<circle cx="138.466" cy="100.052" r="2" transform="rotate(90 138.466 100.052)" fill="white"/>
<circle cx="138.466" cy="230.454" r="2" transform="rotate(90 138.466 230.454)" fill="white"/>
<circle cx="47.488" cy="100.052" r="2" transform="rotate(90 47.488 100.052)" fill="white"/>
<circle cx="47.488" cy="230.454" r="2" transform="rotate(90 47.488 230.454)" fill="white"/>
<circle cx="138.466" cy="116.228" r="2" transform="rotate(90 138.466 116.228)" fill="white"/>
<circle cx="138.466" cy="246.629" r="2" transform="rotate(90 138.466 246.629)" fill="white"/>
<circle cx="47.488" cy="116.228" r="2" transform="rotate(90 47.488 116.228)" fill="white"/>
<circle cx="47.488" cy="246.629" r="2" transform="rotate(90 47.488 246.629)" fill="white"/>
<circle cx="123.301" cy="2" r="2" transform="rotate(90 123.301 2)" fill="white"/>
<circle cx="123.301" cy="132.401" r="2" transform="rotate(90 123.301 132.401)" fill="white"/>
<circle cx="32.3269" cy="2" r="2" transform="rotate(90 32.3269 2)" fill="white"/>
<circle cx="32.325" cy="132.401" r="2" transform="rotate(90 32.325 132.401)" fill="white"/>
<circle cx="123.301" cy="18.1763" r="2" transform="rotate(90 123.301 18.1763)" fill="white"/>
<circle cx="123.301" cy="148.574" r="2" transform="rotate(90 123.301 148.574)" fill="white"/>
<circle cx="32.325" cy="18.1763" r="2" transform="rotate(90 32.325 18.1763)" fill="white"/>
<circle cx="32.325" cy="148.574" r="2" transform="rotate(90 32.325 148.574)" fill="white"/>
<circle cx="123.301" cy="34.3477" r="2" transform="rotate(90 123.301 34.3477)" fill="white"/>
<circle cx="123.301" cy="164.745" r="2" transform="rotate(90 123.301 164.745)" fill="white"/>
<circle cx="32.325" cy="34.3477" r="2" transform="rotate(90 32.325 34.3477)" fill="white"/>
<circle cx="32.325" cy="164.745" r="2" transform="rotate(90 32.325 164.745)" fill="white"/>
<circle cx="123.301" cy="50.519" r="2" transform="rotate(90 123.301 50.519)" fill="white"/>
<circle cx="123.301" cy="180.921" r="2" transform="rotate(90 123.301 180.921)" fill="white"/>
<circle cx="32.325" cy="50.519" r="2" transform="rotate(90 32.325 50.519)" fill="white"/>
<circle cx="32.325" cy="180.921" r="2" transform="rotate(90 32.325 180.921)" fill="white"/>
<circle cx="123.301" cy="67.7056" r="2" transform="rotate(90 123.301 67.7056)" fill="white"/>
<circle cx="123.301" cy="198.103" r="2" transform="rotate(90 123.301 198.103)" fill="white"/>
<circle cx="32.325" cy="67.7056" r="2" transform="rotate(90 32.325 67.7056)" fill="white"/>
<circle cx="32.325" cy="198.103" r="2" transform="rotate(90 32.325 198.103)" fill="white"/>
<circle cx="123.301" cy="83.875" r="2" transform="rotate(90 123.301 83.875)" fill="white"/>
<circle cx="123.301" cy="214.279" r="2" transform="rotate(90 123.301 214.279)" fill="white"/>
<circle cx="32.325" cy="83.875" r="2" transform="rotate(90 32.325 83.875)" fill="white"/>
<circle cx="32.325" cy="214.279" r="2" transform="rotate(90 32.325 214.279)" fill="white"/>
<circle cx="123.301" cy="100.052" r="2" transform="rotate(90 123.301 100.052)" fill="white"/>
<circle cx="123.301" cy="230.454" r="2" transform="rotate(90 123.301 230.454)" fill="white"/>
<circle cx="32.325" cy="100.052" r="2" transform="rotate(90 32.325 100.052)" fill="white"/>
<circle cx="32.325" cy="230.454" r="2" transform="rotate(90 32.325 230.454)" fill="white"/>
<circle cx="123.301" cy="116.228" r="2" transform="rotate(90 123.301 116.228)" fill="white"/>
<circle cx="123.301" cy="246.629" r="2" transform="rotate(90 123.301 246.629)" fill="white"/>
<circle cx="32.325" cy="116.228" r="2" transform="rotate(90 32.325 116.228)" fill="white"/>
<circle cx="32.325" cy="246.629" r="2" transform="rotate(90 32.325 246.629)" fill="white"/>
<circle cx="108.141" cy="2" r="2" transform="rotate(90 108.141 2)" fill="white"/>
<circle cx="108.141" cy="132.401" r="2" transform="rotate(90 108.141 132.401)" fill="white"/>
<circle cx="17.1628" cy="2" r="2" transform="rotate(90 17.1628 2)" fill="white"/>
<circle cx="17.1628" cy="132.401" r="2" transform="rotate(90 17.1628 132.401)" fill="white"/>
<circle cx="108.141" cy="18.1763" r="2" transform="rotate(90 108.141 18.1763)" fill="white"/>
<circle cx="108.141" cy="148.574" r="2" transform="rotate(90 108.141 148.574)" fill="white"/>
<circle cx="17.1628" cy="18.1763" r="2" transform="rotate(90 17.1628 18.1763)" fill="white"/>
<circle cx="17.1628" cy="148.574" r="2" transform="rotate(90 17.1628 148.574)" fill="white"/>
<circle cx="108.141" cy="34.3477" r="2" transform="rotate(90 108.141 34.3477)" fill="white"/>
<circle cx="108.141" cy="164.745" r="2" transform="rotate(90 108.141 164.745)" fill="white"/>
<circle cx="17.1628" cy="34.3477" r="2" transform="rotate(90 17.1628 34.3477)" fill="white"/>
<circle cx="17.1628" cy="164.745" r="2" transform="rotate(90 17.1628 164.745)" fill="white"/>
<circle cx="108.141" cy="50.519" r="2" transform="rotate(90 108.141 50.519)" fill="white"/>
<circle cx="108.141" cy="180.921" r="2" transform="rotate(90 108.141 180.921)" fill="white"/>
<circle cx="17.1628" cy="50.519" r="2" transform="rotate(90 17.1628 50.519)" fill="white"/>
<circle cx="17.1628" cy="180.921" r="2" transform="rotate(90 17.1628 180.921)" fill="white"/>
<circle cx="108.141" cy="67.7056" r="2" transform="rotate(90 108.141 67.7056)" fill="white"/>
<circle cx="108.141" cy="198.103" r="2" transform="rotate(90 108.141 198.103)" fill="white"/>
<circle cx="17.1628" cy="67.7056" r="2" transform="rotate(90 17.1628 67.7056)" fill="white"/>
<circle cx="17.1628" cy="198.103" r="2" transform="rotate(90 17.1628 198.103)" fill="white"/>
<circle cx="108.141" cy="83.875" r="2" transform="rotate(90 108.141 83.875)" fill="white"/>
<circle cx="108.141" cy="214.279" r="2" transform="rotate(90 108.141 214.279)" fill="white"/>
<circle cx="17.1628" cy="83.875" r="2" transform="rotate(90 17.1628 83.875)" fill="white"/>
<circle cx="17.1628" cy="214.279" r="2" transform="rotate(90 17.1628 214.279)" fill="white"/>
<circle cx="108.141" cy="100.052" r="2" transform="rotate(90 108.141 100.052)" fill="white"/>
<circle cx="108.141" cy="230.454" r="2" transform="rotate(90 108.141 230.454)" fill="white"/>
<circle cx="17.1628" cy="100.052" r="2" transform="rotate(90 17.1628 100.052)" fill="white"/>
<circle cx="17.1628" cy="230.454" r="2" transform="rotate(90 17.1628 230.454)" fill="white"/>
<circle cx="108.141" cy="116.228" r="2" transform="rotate(90 108.141 116.228)" fill="white"/>
<circle cx="108.141" cy="246.629" r="2" transform="rotate(90 108.141 246.629)" fill="white"/>
<circle cx="17.1628" cy="116.228" r="2" transform="rotate(90 17.1628 116.228)" fill="white"/>
<circle cx="17.1628" cy="246.629" r="2" transform="rotate(90 17.1628 246.629)" fill="white"/>
<circle cx="92.9753" cy="2" r="2" transform="rotate(90 92.9753 2)" fill="white"/>
<circle cx="92.9753" cy="132.401" r="2" transform="rotate(90 92.9753 132.401)" fill="white"/>
<circle cx="1.99976" cy="2" r="2" transform="rotate(90 1.99976 2)" fill="white"/>
<circle cx="1.99976" cy="132.401" r="2" transform="rotate(90 1.99976 132.401)" fill="white"/>
<circle cx="92.9753" cy="18.1763" r="2" transform="rotate(90 92.9753 18.1763)" fill="white"/>
<circle cx="92.9753" cy="148.574" r="2" transform="rotate(90 92.9753 148.574)" fill="white"/>
<circle cx="1.99976" cy="18.1763" r="2" transform="rotate(90 1.99976 18.1763)" fill="white"/>
<circle cx="1.99976" cy="148.574" r="2" transform="rotate(90 1.99976 148.574)" fill="white"/>
<circle cx="92.9753" cy="34.3477" r="2" transform="rotate(90 92.9753 34.3477)" fill="white"/>
<circle cx="92.9753" cy="164.745" r="2" transform="rotate(90 92.9753 164.745)" fill="white"/>
<circle cx="1.99976" cy="34.3477" r="2" transform="rotate(90 1.99976 34.3477)" fill="white"/>
<circle cx="1.99976" cy="164.745" r="2" transform="rotate(90 1.99976 164.745)" fill="white"/>
<circle cx="92.9753" cy="50.519" r="2" transform="rotate(90 92.9753 50.519)" fill="white"/>
<circle cx="92.9753" cy="180.921" r="2" transform="rotate(90 92.9753 180.921)" fill="white"/>
<circle cx="1.99976" cy="50.519" r="2" transform="rotate(90 1.99976 50.519)" fill="white"/>
<circle cx="1.99976" cy="180.921" r="2" transform="rotate(90 1.99976 180.921)" fill="white"/>
<circle cx="92.9753" cy="67.7056" r="2" transform="rotate(90 92.9753 67.7056)" fill="white"/>
<circle cx="92.9753" cy="198.103" r="2" transform="rotate(90 92.9753 198.103)" fill="white"/>
<circle cx="1.99976" cy="67.7056" r="2" transform="rotate(90 1.99976 67.7056)" fill="white"/>
<circle cx="1.99976" cy="198.103" r="2" transform="rotate(90 1.99976 198.103)" fill="white"/>
<circle cx="92.9753" cy="83.875" r="2" transform="rotate(90 92.9753 83.875)" fill="white"/>
<circle cx="92.9753" cy="214.279" r="2" transform="rotate(90 92.9753 214.279)" fill="white"/>
<circle cx="1.99976" cy="83.875" r="2" transform="rotate(90 1.99976 83.875)" fill="white"/>
<circle cx="1.99976" cy="214.279" r="2" transform="rotate(90 1.99976 214.279)" fill="white"/>
<circle cx="92.9753" cy="100.052" r="2" transform="rotate(90 92.9753 100.052)" fill="white"/>
<circle cx="92.9753" cy="230.454" r="2" transform="rotate(90 92.9753 230.454)" fill="white"/>
<circle cx="1.99976" cy="100.052" r="2" transform="rotate(90 1.99976 100.052)" fill="white"/>
<circle cx="1.99976" cy="230.454" r="2" transform="rotate(90 1.99976 230.454)" fill="white"/>
<circle cx="92.9753" cy="116.228" r="2" transform="rotate(90 92.9753 116.228)" fill="white"/>
<circle cx="92.9753" cy="246.629" r="2" transform="rotate(90 92.9753 246.629)" fill="white"/>
<circle cx="1.99976" cy="116.228" r="2" transform="rotate(90 1.99976 116.228)" fill="white"/>
<circle cx="1.99976" cy="246.629" r="2" transform="rotate(90 1.99976 246.629)" fill="white"/>
</svg>
