<svg width="31" height="32" viewBox="0 0 31 32" fill="none" xmlns="http://www.w3.org/2000/svg">
<path d="M15.2264 31.012C6.82708 31.012 -4.7162e-08 24.0595 -3.03952e-08 15.506C-1.36284e-08 6.95246 6.82708 1.33826e-08 15.2264 2.98471e-08C23.6257 4.63115e-08 30.4528 6.95246 30.4528 15.506C30.4528 24.0595 23.6257 31.012 15.2264 31.012ZM15.2264 2.16363C8.0027 2.16363 2.12461 8.14967 2.12461 15.506C2.12461 22.8623 8.0027 28.8484 15.2264 28.8484C22.4501 28.8484 28.3281 22.8623 28.3281 15.506C28.3281 8.14967 22.4501 2.16363 15.2264 2.16363Z" fill="#FF2E39"/>
<path d="M13.2145 20.6701C12.9312 20.6701 12.6621 20.5547 12.4638 20.3527L8.45529 16.2707C8.04453 15.8524 8.04453 15.16 8.45529 14.7417C8.86604 14.3234 9.54592 14.3234 9.95668 14.7417L13.2145 18.0593L20.4948 10.6453C20.9056 10.227 21.5854 10.227 21.9962 10.6453C22.407 11.0636 22.407 11.7559 21.9962 12.1742L13.9652 20.3527C13.7669 20.5547 13.4978 20.6701 13.2145 20.6701Z" fill="#FF2E39"/>
</svg>
